<?xml version="1.0" encoding="utf-8"?>
<!-- Generator: Adobe Illustrator 23.1.0, SVG Export Plug-In . SVG Version: 6.00 Build 0)  -->
<svg version="1.1" xmlns="http://www.w3.org/2000/svg" xmlns:xlink="http://www.w3.org/1999/xlink" x="0px" y="0px"
	 viewBox="0 0 800 800" style="enable-background:new 0 0 800 800;" xml:space="preserve">
<style type="text/css">
	.st0{fill:#F3F3F3;}
	.st1{fill:#FFFFFF;}
	.st2{fill:#838383;}
	.st3{fill:none;stroke:#838383;stroke-width:6;stroke-linecap:round;stroke-linejoin:round;stroke-miterlimit:10;}
</style>
<g id="暂无内容">
	<g>
		<g>
			<g>
				<g>
					<circle class="st0" cx="665.64" cy="166.43" r="19.78"/>
				</g>
			</g>
			<g>
				<g>
					<circle class="st0" cx="97.52" cy="618.23" r="19.78"/>
				</g>
			</g>
			<g>
				<g>
					<path class="st0" d="M218.65,680.23c-7.38,0-13.38-6-13.38-13.38c0-7.38,6-13.38,13.38-13.38c7.38,0,13.38,6,13.38,13.38
						C232.03,674.23,226.02,680.23,218.65,680.23z M218.65,659.9c-3.83,0-6.95,3.12-6.95,6.95c0,3.83,3.12,6.95,6.95,6.95
						c3.83,0,6.95-3.12,6.95-6.95C225.6,663.02,222.48,659.9,218.65,659.9z"/>
				</g>
			</g>
			<g>
				<g>
					<path class="st0" d="M597.08,107.09H577.1V87.11c0-3.66-2.96-6.62-6.62-6.62c-3.66,0-6.62,2.96-6.62,6.62v19.98h-19.98
						c-3.66,0-6.62,2.96-6.62,6.62c0,3.66,2.96,6.62,6.62,6.62h19.98v19.98c0,3.66,2.96,6.62,6.62,6.62c3.66,0,6.62-2.96,6.62-6.62
						v-19.98h19.98c3.66,0,6.62-2.96,6.62-6.62C603.7,110.05,600.73,107.09,597.08,107.09z"/>
				</g>
			</g>
			<g>
				<g>
					<path class="st0" d="M654.66,684.12h-14.84v-14.84c0-3.04-2.47-5.51-5.51-5.51c-3.04,0-5.51,2.47-5.51,5.51v14.84h-14.84
						c-3.04,0-5.51,2.47-5.51,5.51s2.47,5.51,5.51,5.51h14.84v14.84c0,3.04,2.47,5.51,5.51,5.51c3.04,0,5.51-2.47,5.51-5.51v-14.84
						h14.84c3.04,0,5.51-2.47,5.51-5.51S657.7,684.12,654.66,684.12z"/>
				</g>
			</g>
			<g>
				<g>
					<path class="st0" d="M119.59,122.53c8.7,8.7,22.82,8.7,31.52,0l0,0c8.7-8.7,8.7-22.82,0-31.52l-6.66-6.66
						c-8.7-8.7-22.82-8.7-31.52,0h0c-8.7,8.7-8.7,22.82,0,31.52L119.59,122.53z"/>
				</g>
			</g>
			<g>
				<g>
					<path class="st0" d="M234.31,114.47c3.97,3.97,10.41,3.97,14.38,0c3.97-3.97,3.97-10.41,0-14.38l-10.01-10.01
						c-3.97-3.97-10.41-3.97-14.38,0c-3.97,3.97-3.97,10.41,0,14.38L234.31,114.47z"/>
				</g>
			</g>
			<g>
				<g>
					<path class="st0" d="M83.24,315.2c3.97,3.97,10.41,3.97,14.38,0h0c3.97-3.97,3.97-10.41,0-14.38L87.61,290.8
						c-3.97-3.97-10.41-3.97-14.38,0c-3.97,3.97-3.97,10.41,0,14.38L83.24,315.2z"/>
				</g>
			</g>
			<g>
				<g>
					<path class="st0" d="M611.2,622.66c-3.97-3.97-10.41-3.97-14.38,0c-3.97,3.97-3.97,10.41,0,14.38l10.01,10.01
						c3.97,3.97,10.41,3.97,14.38,0c3.97-3.97,3.97-10.41,0-14.38L611.2,622.66z"/>
				</g>
			</g>
			<g>
				<g>
					<circle class="st0" cx="698.82" cy="631.15" r="32.77"/>
				</g>
			</g>
			<g>
				<g>
					<path class="st0" d="M699.47,479.19l-31.51-31.51l-19.97-21.27c-5.17-5.43-5.24-13.94-0.16-19.46v0
						c5.55-6.03,15.04-6.14,20.72-0.23l4.04,4.41l9.32,9.32c5.41,5.41,14.29,5.82,19.8,0.51c5.61-5.41,5.68-14.35,0.19-19.84
						l-18.63-18.63c-6.88-6.88-11.36-15.82-12.66-25.46c-18.22-135.39-134.2-239.79-274.58-239.79c-4.79,0-9.55,0.13-14.28,0.37
						c-5.11,0.26-10.1-1.61-13.71-5.23L348.9,93.24c-8.55-8.55-22.47-9.18-31.32-0.94c-9.29,8.65-9.48,23.19-0.59,32.09l3.34,3.34
						l10.41,10.94c6.54,6.92,5.57,18-2.08,23.68c-6.51,4.83-14.68,3.26-20.19-2.69l-20.69-20.46l-18.04-18.04
						c-3.83-3.83-10.06-4.28-14.13-0.71c-4.46,3.92-4.62,10.71-0.49,14.84l13.14,13.14l8.56,8.24c8.7,8.52,8.89,21.8,0.24,30.36l0,0
						c-8.59,8.49-22.45,8.38-30.89-0.26l-14.74-15.33l-35.31-35.31c-8.7-8.7-22.82-8.7-31.52,0h0c-8.7,8.7-8.7,22.82,0,31.52
						l25.61,25.69l8.98,8.38c8.49,8.43,8.69,22.09,0.45,30.76l0,0c-8.82,9.29-23.69,9.11-32.28-0.4l-4.96-5.44l-15.36-15.44
						c-12.62-12.62-33.2-13.4-46.16-1.12c-13.45,12.73-13.67,33.97-0.66,46.98l37.34,37.33l17.8,17.59
						c6.71,6.64,6.5,17.55-0.46,23.93l0,0c-6.58,6.03-16.76,5.75-22.99-0.63l-5.35-5.55l-8.11-8.11c-3.97-3.97-10.41-3.97-14.38,0h0
						c-5.06,4.2-3.69,10.69,0.06,14.44l17.79,17.79l36.99,36.09c6.38,6.22,6.41,16.47,0.08,22.73l0,0
						c-6.18,6.11-16.12,6.15-22.34,0.08l-17.67-17.24L93,369.56c-5.41-5.41-14.29-5.82-19.8-0.51c-5.61,5.41-5.68,14.35-0.19,19.84
						l43.89,43.89c3.55,3.55,5.91,8.11,6.84,13.05c23.49,124.93,130.8,220.27,261.3,225.36c7.2,0.28,14.06,3.16,19.28,8.14
						c8.46,8.08,20.27,19.34,20.27,19.34c8.55,8.55,22.47,9.18,31.32,0.94c9.29-8.65,9.48-23.19,0.59-32.09l-2.26-2.26l-9.81-10.24
						c-5.59-6.06-5.03-15.55,1.23-20.92h0c5.93-5.08,14.81-4.58,20.13,1.13l20.22,21.22l22.02,22.02c8.9,8.89,23.44,8.7,32.09-0.58
						c8.24-8.84,7.6-22.77-0.94-31.32l-9.5-9.5c0,0-3.02-3.11-6.89-7.09c-9.03-9.28-8.71-24.16,0.7-33.05l0.48-0.45
						c9.02-8.52,23.15-8.43,32.07,0.2l13.82,13.38l5.91,5.91c3.83,3.83,10.07,4.28,14.13,0.71c4.46-3.92,4.62-10.71,0.49-14.84
						l-5.15-5.15c-0.94,0.44-20.83-20.04-32.63-32.32c-4.75-4.94-4.56-12.79,0.41-17.5l0,0c4.95-4.69,12.77-4.47,17.45,0.48
						l31.03,32.82l14.15,14.15c12.62,12.62,33.19,13.4,46.16,1.13c13.45-12.73,13.67-33.97,0.66-46.98l-22.57-22.57l-11.4-12.43
						c-5.57-6.02-5.32-15.38,0.56-21.1l0,0c6.11-5.94,15.92-5.64,21.67,0.65l2.92,3.4l14.64,14.65c8.9,8.9,23.44,8.7,32.09-0.58
						C708.65,501.66,708.02,487.74,699.47,479.19z"/>
				</g>
			</g>
			<g>
				<g>
					<path class="st1" d="M426.96,198.22h-14.84v-14.84c0-3.04-2.47-5.51-5.51-5.51c-3.04,0-5.51,2.47-5.51,5.51v14.84h-14.84
						c-3.04,0-5.51,2.47-5.51,5.51s2.47,5.51,5.51,5.51h14.84v14.84c0,3.04,2.47,5.51,5.51,5.51c3.04,0,5.51-2.47,5.51-5.51v-14.84
						h14.84c3.04,0,5.51-2.47,5.51-5.51S430,198.22,426.96,198.22z"/>
				</g>
			</g>
			<g>
				<g>
					<path class="st1" d="M582.72,416.76c-7.38,0-13.38-6-13.38-13.38c0-7.38,6-13.38,13.38-13.38s13.38,6,13.38,13.38
						C596.1,410.76,590.09,416.76,582.72,416.76z M582.72,396.42c-3.83,0-6.95,3.12-6.95,6.95c0,3.83,3.12,6.95,6.95,6.95
						c3.83,0,6.95-3.12,6.95-6.95C589.67,399.54,586.55,396.42,582.72,396.42z"/>
				</g>
			</g>
			<g>
				<g>
					<path class="st1" d="M220.07,518.79c-7.38,0-13.38-6-13.38-13.38s6-13.38,13.38-13.38s13.38,6,13.38,13.38
						S227.44,518.79,220.07,518.79z M220.07,498.46c-3.83,0-6.95,3.12-6.95,6.95c0,3.83,3.12,6.95,6.95,6.95
						c3.83,0,6.95-3.12,6.95-6.95C227.02,501.58,223.9,498.46,220.07,498.46z"/>
				</g>
			</g>
		</g>
		<g>
			<g>
				<g>
					<polygon class="st1" points="279.49,406.02 258.57,406.02 258.57,362.94 212.62,362.94 212.62,406.02 172.49,406.02 
						234.41,273.56 184.31,272.15 123.02,404.22 123.02,406.02 122.99,406.02 122.99,459.21 212.62,459.21 212.62,488.58 
						258.57,488.58 258.57,459.21 279.49,459.21 					"/>
				</g>
			</g>
			<g>
				<g>
					<polygon class="st1" points="676.76,406.02 655.83,406.02 655.83,362.94 609.89,362.94 609.89,406.02 569.75,406.02 
						631.68,273.56 581.57,272.15 520.29,404.22 520.29,406.02 520.26,406.02 520.26,459.21 609.89,459.21 609.89,488.58 
						655.83,488.58 655.83,459.21 676.76,459.21 					"/>
				</g>
			</g>
			<g>
				<g>
					<path class="st1" d="M464.04,268.17l-11.28,29.4l-40.44,24.4l-4.55,39l-18.18,16.99l13.88,20.1l-2.63,22.97l-12.68,17.94
						l7.42-23.93l-0.96-15.07l-26.8-22.25l16.99-24.88l-16.99-44.26l13.16-17.94c0,0-8.89-20.75-14.64-34.55
						c-55.37,14.97-96.1,65.55-96.1,125.65c0,71.89,58.27,130.16,130.16,130.16s130.16-58.27,130.16-130.16
						C530.56,332.96,503.73,290.46,464.04,268.17z"/>
				</g>
			</g>
			<g>
				<g>
					<path class="st2" d="M400.4,514.89c-73.42,0-133.16-59.74-133.16-133.16c0-60.03,40.43-112.89,98.32-128.55l2.54-0.69
						l1.01,2.43c5.67,13.62,14.54,34.31,14.63,34.52l0.67,1.57l-13.2,18.01l16.96,44.2l-16.33,23.93l25.69,21.33l1.02,16.13
						l1.81-15.78l-14.71-21.3l19.27-18l4.59-39.37l40.81-24.63l12.16-31.67l3.03,1.7c41.98,23.58,68.05,68.09,68.05,116.17
						C533.56,455.15,473.82,514.89,400.4,514.89z M364.6,259.68c-53.92,15.78-91.36,65.59-91.36,122.04
						c0,70.12,57.04,127.16,127.16,127.16c70.12,0,127.16-57.04,127.16-127.16c0-44.76-23.66-86.28-61.98-109.2l-10.39,27.07
						l-40.06,24.18l-4.5,38.63l-17.1,15.97l13.05,18.9l-2.85,24.85l-24.04,34.02l12.85-41.47l-0.84-13.23l-27.9-23.17l17.64-25.84
						l-17.01-44.32l13.12-17.88C375.51,285.48,369.29,270.92,364.6,259.68z M398.38,416.12l-1.76,5.67l1.32-1.87L398.38,416.12z"/>
				</g>
			</g>
			<g>
				<g>
					<path class="st2" d="M261.57,491.58h-51.95v-29.37h-89.63v-59.19h0.28l0.03-0.07l62.11-133.86l56.65,1.59L177.2,403.02h32.42
						v-43.08h51.95v43.08H275l0.46,2.44c1.51,8.01,3.81,15.89,6.82,23.42l0.21,0.54v32.79h-20.92V491.58z M215.62,485.58h39.95
						v-29.37h20.92v-25.63c-2.75-6.96-4.91-14.19-6.44-21.55h-14.48v-43.08h-39.95v43.08h-47.85l61.99-132.59l-43.56-1.22
						l-60.17,129.67l-0.03,51.33h89.63V485.58z"/>
				</g>
			</g>
			<g>
				<g>
					<path class="st2" d="M658.83,491.58h-51.95v-29.37h-89.63v-30.26l0.24-0.56c6.63-15.6,10.01-32.19,10.06-49.3l0-0.66
						l52.13-112.33l56.65,1.59l-61.87,132.34h32.42v-43.08h51.95v43.08h20.92v59.19h-20.92V491.58z M612.89,485.58h39.95v-29.37
						h20.92v-47.19h-20.92v-43.08h-39.95v43.08h-47.85l61.99-132.59l-43.56-1.22l-49.91,107.56c-0.13,17.47-3.59,34.42-10.29,50.4
						v23.05h89.63V485.58z"/>
				</g>
			</g>
			<g>
				<g>
					<path class="st2" d="M433.52,467.79c-7.82,0-14.19-6.37-14.19-14.19s6.37-14.19,14.19-14.19c7.82,0,14.19,6.37,14.19,14.19
						S441.34,467.79,433.52,467.79z M433.52,445.41c-4.52,0-8.19,3.67-8.19,8.19s3.67,8.19,8.19,8.19s8.19-3.67,8.19-8.19
						S438.04,445.41,433.52,445.41z"/>
				</g>
			</g>
			<g>
				<g>
					<path class="st2" d="M327.06,411.14c-5.81,0-10.54-4.73-10.54-10.54s4.73-10.54,10.54-10.54c5.81,0,10.54,4.73,10.54,10.54
						S332.88,411.14,327.06,411.14z M327.06,394.06c-3.61,0-6.54,2.93-6.54,6.54c0,3.61,2.93,6.54,6.54,6.54s6.54-2.93,6.54-6.54
						C333.6,396.99,330.67,394.06,327.06,394.06z"/>
				</g>
			</g>
			<g>
				<g>
					<path class="st2" d="M456.09,367.78c-0.51,0-1.02-0.2-1.41-0.59c-0.78-0.78-0.78-2.05,0-2.83l11.98-11.98
						c0.78-0.78,2.05-0.78,2.83,0c0.78,0.78,0.78,2.05,0,2.83L457.5,367.2C457.11,367.59,456.6,367.78,456.09,367.78z"/>
				</g>
			</g>
			<g>
				<g>
					<path class="st2" d="M468.06,367.78c-0.51,0-1.02-0.2-1.41-0.59l-11.98-11.98c-0.78-0.78-0.78-2.05,0-2.83
						c0.78-0.78,2.05-0.78,2.83,0l11.98,11.98c0.78,0.78,0.78,2.05,0,2.83C469.09,367.59,468.58,367.78,468.06,367.78z"/>
				</g>
			</g>
		</g>
	</g>
</g>
<g id="图层_2">
</g>
<g id="图层_3">
</g>
<g id="图层_4">
</g>
<g id="图层_5">
</g>
<g id="图层_6">
</g>
<g id="图层_7">
</g>
</svg>
